#!OML:ASF X:\für Bonn\!DataBase\2005_08_11_Bastian_Final\c3d\Bastian.ASF
:FULLY-SPECIFIED
:DEGREES
33
root -27.1969 16.8468 23.8796 356.728 -233.091 6.92132
lowerback 10.6206 -3.50945 -0.423699
upperback 8.37943 -4.0952 0.482263
thorax 2.87171 -1.83217 1.06906
lowerneck -10.2476 -2.25656 -4.57444
upperneck 5.02923 -3.04032 9.3503
head 3.38942 -1.13508 3.42068
rclavicle -6.50026e-014 2.98177e-014
rhumerus -42.4265 -10.0808 -79.8621
rradius 36.0035
rwrist -5.3303
rhand -22.7682 3.55154
rfingers 7.12502
rthumb 3.66691 -26.3967
lclavicle -6.50026e-014 2.98177e-014
lhumerus -19.9521 -8.94915 88.707
lradius 51.0413
lwrist 42.7438
lhand -10.7045 -11.7516
lfingers 7.12502
lthumb 15.3051 17.6621
rfemur -8.58282 -8.92431 27.2149
rtibia 45.0193
rfoot -15.137 -6.63297
rtoes 24.0289
lfemur 3.17254 13.7574 -9.53951
ltibia 57.4284
lfoot -11.9684 5.60769
ltoes -33.9634
34
root -27.1331 16.8624 23.8393 356.583 -233.576 6.99736
lowerback 10.8608 -3.47003 -0.371999
upperback 8.40932 -4.03112 0.430759
thorax 2.764 -1.79343 0.994972
lowerneck -10.3122 -2.10279 -4.38596
upperneck 5.11931 -2.84316 9.03871
head 3.40463 -1.04696 3.3057
rclavicle 9.54166e-015 1.39149e-014
rhumerus -42.4474 -10.3417 -79.4471
rradius 36.9998
rwrist -4.88293
rhand -23.2344 3.80535
rfingers 7.12502
rthumb 3.21678 -26.1501
lclavicle 9.54166e-015 1.39149e-014
lhumerus -20.0177 -8.55312 88.655
lradius 52.3323
lwrist 42.5885
lhand -10.7966 -11.5359
lfingers 7.12502
lthumb 15.2164 17.8846
rfemur -7.75874 -8.78357 27.1623
rtibia 44.4563
rfoot -15.1651 -6.29638
rtoes 24.012
lfemur 1.78536 14.1168 -9.22509
ltibia 60.2463
lfoot -9.52961 5.68128
ltoes -32.4993
35
root -27.0692 16.8751 23.7975 356.435 -234.064 7.07407
lowerback 11.1169 -3.42095 -0.322712
upperback 8.4357 -3.95407 0.392729
thorax 2.64537 -1.74855 0.93557
lowerneck -10.3799 -1.96356 -4.25112
upperneck 5.21751 -2.6611 8.75762
head 3.42607 -0.965975 3.20812
rclavicle 1.70955e-014 -7.55382e-015
rhumerus -42.3993 -10.6128 -78.951
rradius 38.037
rwrist -4.46494
rhand -23.5665 4.03338
rfingers 7.12502
rthumb 2.89597 -25.9267
lclavicle 1.70955e-014 -7.55382e-015
lhumerus -20.0428 -8.11873 88.5933
lradius 53.568
lwrist 42.4026
lhand -10.8922 -11.435
lfingers 7.12502
lthumb 15.1243 17.9924
rfemur -6.92902 -8.64317 27.0984
rtibia 43.9033
rfoot -15.2029 -5.94924
rtoes 24.0258
lfemur 0.377077 14.47 -8.95045
ltibia 62.9582
lfoot -7.40233 5.63355
ltoes -31.7986
36
root -27.005 16.8876 23.7565 356.262 -234.53 7.11749
lowerback 11.3872 -3.36251 -0.282754
upperback 8.45844 -3.86501 0.328253
thorax 2.51422 -1.69732 0.853211
lowerneck -10.4695 -1.83678 -4.04871
upperneck 5.34585 -2.50378 8.44756
head 3.46143 -0.896129 3.08907
rclavicle -1.02374e-014 2.22639e-014
rhumerus -42.3292 -10.8669 -78.455
rradius 39.184
rwrist -4.01045
rhand -23.8355 4.13116
rfingers 7.12502
rthumb 2.63619 -25.8323
lclavicle -1.02374e-014 2.22639e-014
lhumerus -19.9932 -7.72743 88.4461
lradius 54.7081
lwrist 42.2056
lhand -10.9288 -11.3771
lfingers 7.12502
lthumb 15.0891 18.053
rfemur -6.09488 -8.38251 27.0408
rtibia 43.3504
rfoot -15.2573 -5.70667
rtoes 24.2832
lfemur -1.06113 14.7654 -8.74051
ltibia 65.551
lfoot -5.71436 5.34677
ltoes -31.2872
37
root -26.9402 16.901 23.7153 356.085 -235.024 7.15545
lowerback 11.6759 -3.29995 -0.289215
upperback 8.46831 -3.7755 0.291295
thorax 2.36537 -1.64903 0.82561
lowerneck -10.4885 -1.69799 -3.92561
upperneck 5.4323 -2.32036 8.16075
head 3.47301 -0.816749 2.99205
rclavicle 1.25632e-013 -5.32743e-014
rhumerus -42.1935 -11.0619 -77.8741
rradius 40.3482
rwrist -3.56994
rhand -24.0101 4.25595
rfingers 7.12502
rthumb 2.46761 -25.7095
lclavicle 1.25632e-013 -5.32743e-014
lhumerus -19.9518 -7.25469 88.2769
lradius 55.8682
lwrist 41.9568
lhand -10.9552 -11.3532
lfingers 7.12502
lthumb 15.0637 18.0787
rfemur -5.25957 -8.06824 26.9934
rtibia 42.8001
rfoot -15.3181 -5.48969
rtoes 24.4369
lfemur -2.4862 14.9927 -8.59482
ltibia 68.0034
lfoot -4.46296 4.85086
ltoes -30.6545
38
root -26.8763 16.9155 23.674 355.921 -235.482 7.19991
lowerback 11.9628 -3.22768 -0.251918
upperback 8.48293 -3.6685 0.236387
thorax 2.21839 -1.58922 0.752454
lowerneck -10.5319 -1.59242 -3.78183
upperneck 5.54291 -2.18501 7.8758
head 3.49948 -0.759587 2.88928
rclavicle 2.5842e-014 2.78299e-015
rhumerus -42.0358 -11.2617 -77.2668
rradius 41.5434
rwrist -3.07521
rhand -24.1138 4.33283
rfingers 7.12502
rthumb 2.36742 -25.6338
lclavicle 2.5842e-014 2.78299e-015
lhumerus -19.856 -6.95097 88.0373
lradius 56.9859
lwrist 41.7886
lhand -10.9992 -11.4876
lfingers 7.12502
lthumb 15.0213 17.9475
rfemur -4.43878 -7.72948 26.9782
rtibia 42.2623
rfoot -15.348 -5.39318
rtoes 24.4463
lfemur -3.94227 15.1278 -8.50756
ltibia 70.2779
lfoot -3.6415 4.20694
ltoes -30.0629
39
root -26.8138 16.9258 23.6327 355.773 -235.937 7.27754
lowerback 12.2807 -3.16365 -0.201775
upperback 8.4894 -3.57114 0.185746
thorax 2.04643 -1.53384 0.67831
lowerneck -10.5744 -1.474 -3.66784
upperneck 5.69043 -2.0319 7.61444
head 3.53717 -0.692784 2.79997
rclavicle -4.78077e-014 -3.57812e-015
rhumerus -41.8731 -11.3217 -76.6647
rradius 42.8008
rwrist -2.53966
rhand -24.2555 4.30328
rfingers 7.12502
rthumb 2.23063 -25.6648
lclavicle -4.78077e-014 -3.57812e-015
lhumerus -19.6777 -6.63477 87.7326
lradius 57.9983
lwrist 41.6015
lhand -11.0346 -11.6938
lfingers 7.12502
lthumb 14.9871 17.7439
rfemur -3.63011 -7.37539 26.9938
rtibia 41.7667
rfoot -15.4108 -5.33641
rtoes 24.2646
lfemur -5.36706 15.2425 -8.4205
ltibia 72.328
lfoot -3.25009 3.42548
ltoes -29.1912
40
root -26.7513 16.9324 23.5912 355.603 -236.381 7.31808
lowerback 12.5789 -3.09342 -0.180956
upperback 8.5 -3.46831 0.137607
thorax 1.89209 -1.47706 0.620463
lowerneck -10.5793 -1.36586 -3.55712
upperneck 5.79405 -1.88879 7.33705
head 3.5565 -0.633439 2.70563
rclavicle 3.54831e-014 -1.07344e-014
rhumerus -41.6318 -11.2681 -76.0223
rradius 44.0668
rwrist -1.92794
rhand -24.3668 4.24292
rfingers 7.12502
rthumb 2.12309 -25.7263
lclavicle 3.54831e-014 -1.07344e-014
lhumerus -19.4227 -6.42045 87.3689
lradius 58.9716
lwrist 41.4576
lhand -11.1572 -11.9585
lfingers 7.12502
lthumb 14.8691 17.488
rfemur -2.86675 -7.05338 26.9853
rtibia 41.3335
rfoot -15.4888 -5.27407
rtoes 24.063
lfemur -6.76393 15.3398 -8.39457
ltibia 74.0948
lfoot -3.21424 2.56019
ltoes -28.57
41
root -26.6899 16.9329 23.5499 355.432 -236.815 7.35693
lowerback 12.8922 -3.02298 -0.158815
upperback 8.49923 -3.36583 0.0942667
thorax 1.71856 -1.42081 0.566896
lowerneck -10.6186 -1.26833 -3.50741
upperneck 5.97277 -1.75845 7.11191
head 3.6066 -0.577589 2.63682
rclavicle -9.74045e-015 -3.57812e-015
rhumerus -41.3363 -11.0418 -75.374
rradius 45.3416
rwrist -1.36736
rhand -24.5931 4.18415
rfingers 7.12502
rthumb 1.90459 -25.7871
lclavicle -9.74045e-015 -3.57812e-015
lhumerus -19.1093 -6.29278 86.9498
lradius 59.9158
lwrist 41.4082
lhand -11.425 -12.266
lfingers 7.12502
lthumb 14.611 17.1993
rfemur -2.14474 -6.7092 26.9857
rtibia 40.9742
rfoot -15.6057 -5.25211
rtoes 23.9742
lfemur -8.12384 15.4382 -8.39931
ltibia 75.573
lfoot -3.34279 1.53125
ltoes -28.3437
42
root -26.6285 16.9312 23.5066 355.292 -237.244 7.43339
lowerback 13.1926 -2.95448 -0.0879164
upperback 8.49817 -3.26139 0.0289954
thorax 1.54785 -1.36128 0.461592
lowerneck -10.6229 -1.16271 -3.34065
upperneck 6.17012 -1.62871 6.81624
head 3.65556 -0.523315 2.52729
rclavicle 5.03919e-014 -3.45885e-014
rhumerus -40.9936 -10.7457 -74.7365
rradius 46.6436
rwrist -0.797413
rhand -24.9198 4.11873
rfingers 7.12502
rthumb 1.58907 -25.8551
lclavicle 5.03919e-014 -3.45885e-014
lhumerus -18.7235 -6.17835 86.4235
lradius 60.799
lwrist 41.3781
lhand -11.7105 -12.6319
lfingers 7.12502
lthumb 14.336 16.8532
rfemur -1.44239 -6.40565 26.9961
rtibia 40.6615
rfoot -15.7334 -5.19853
rtoes 23.7375
lfemur -9.44609 15.5135 -8.41178
ltibia 76.7895
lfoot -3.57805 0.361957
ltoes -28.2463
